{
    "asset" : {
        "generator" : "Khronos glTF Blender I/O v1.5.17",
        "version" : "2.0"
    },
    "scene" : 0,
    "scenes" : [
        {
            "name" : "Scene",
            "nodes" : [
                0
            ]
        }
    ],
    "nodes" : [
        {
            "mesh" : 0,
            "name" : "RetopoFlow",
            "rotation" : [
                0,
                -0.30070579051971436,
                0,
                0.9537169337272644
            ]
        }
    ],
    "materials" : [
        {
            "doubleSided" : true,
            "name" : "lowpoly",
            "normalTexture" : {
                "index" : 0
            },
            "pbrMetallicRoughness" : {
                "baseColorTexture" : {
                    "index" : 1
                },
                "metallicFactor" : 0
            }
        }
    ],
    "meshes" : [
        {
            "name" : "RetopoFlow.001",
            "primitives" : [
                {
                    "attributes" : {
                        "POSITION" : 0,
                        "NORMAL" : 1,
                        "TEXCOORD_0" : 2
                    },
                    "indices" : 3,
                    "material" : 0
                }
            ]
        }
    ],
    "textures" : [
        {
            "sampler" : 0,
            "source" : 0
        },
        {
            "sampler" : 0,
            "source" : 1
        }
    ],
    "images" : [
        {
            "mimeType" : "image/png",
            "name" : "beetynorm",
            "uri" : "beetynorm.png"
        },
        {
            "mimeType" : "image/png",
            "name" : "beetycol",
            "uri" : "beetycol.png"
        }
    ],
    "accessors" : [
        {
            "bufferView" : 0,
            "componentType" : 5126,
            "count" : 770,
            "max" : [
                0.09891320019960403,
                0.12470340728759766,
                0.07970872521400452
            ],
            "min" : [
                -0.08437218517065048,
                -0.09175387024879456,
                -0.07808281481266022
            ],
            "type" : "VEC3"
        },
        {
            "bufferView" : 1,
            "componentType" : 5126,
            "count" : 770,
            "type" : "VEC3"
        },
        {
            "bufferView" : 2,
            "componentType" : 5126,
            "count" : 770,
            "type" : "VEC2"
        },
        {
            "bufferView" : 3,
            "componentType" : 5123,
            "count" : 4050,
            "type" : "SCALAR"
        }
    ],
    "bufferViews" : [
        {
            "buffer" : 0,
            "byteLength" : 9240,
            "byteOffset" : 0
        },
        {
            "buffer" : 0,
            "byteLength" : 9240,
            "byteOffset" : 9240
        },
        {
            "buffer" : 0,
            "byteLength" : 6160,
            "byteOffset" : 18480
        },
        {
            "buffer" : 0,
            "byteLength" : 8100,
            "byteOffset" : 24640
        }
    ],
    "samplers" : [
        {
            "magFilter" : 9729,
            "minFilter" : 9987
        }
    ],
    "buffers" : [
        {
            "byteLength" : 32740,
            "uri" : "big_boy_beety.bin"
        }
    ]
}
